<svg width="102" height="40" viewBox="0 0 102 40" fill="none" xmlns="http://www.w3.org/2000/svg">
<path d="M11.76 5.88329V15.5713H1.022V5.88329H3.052V13.9473H5.432V5.88329H7.35V13.9473H9.744V5.88329H11.76ZM21.1132 15.5713H19.0832V11.6793C19.0832 10.354 19.1812 9.11262 19.3772 7.95529L16.3252 15.5713H13.8052V5.88329H15.8352V9.81729C15.8352 10.6013 15.8072 11.2546 15.7512 11.7773C15.7045 12.2906 15.6345 12.86 15.5412 13.4853L18.6492 5.88329H21.1132V15.5713ZM33.6008 10.6713C33.6008 12.062 33.1994 13.1166 32.3968 13.8353C31.5941 14.5446 30.4788 14.9226 29.0508 14.9693V16.1033H27.0488V14.9553C25.6021 14.89 24.4821 14.5073 23.6888 13.8073C22.8954 13.098 22.4988 12.0666 22.4988 10.7133C22.4988 9.32262 22.9001 8.27262 23.7028 7.56329C24.5054 6.84462 25.6208 6.46196 27.0488 6.41529V5.36529H29.0508V6.42929C30.4974 6.49462 31.6174 6.88196 32.4108 7.59129C33.2041 8.29129 33.6008 9.31796 33.6008 10.6713ZM28.9668 13.6533C29.8534 13.5973 30.4974 13.3313 30.8988 12.8553C31.3001 12.3793 31.5008 11.6513 31.5008 10.6713C31.5008 9.70996 31.2954 8.99129 30.8848 8.51529C30.4741 8.03929 29.8348 7.77796 28.9668 7.73129V13.6533ZM24.5988 10.7133C24.5988 11.6746 24.8041 12.3933 25.2148 12.8693C25.6254 13.3453 26.2648 13.6066 27.1328 13.6533V7.73129C26.2461 7.78729 25.6021 8.05329 25.2008 8.52929C24.7994 9.00529 24.5988 9.73329 24.5988 10.7133ZM40.9168 5.88329L40.6928 7.49329H38.2428V15.5713H36.1848V7.49329H33.6088V5.88329H40.9168Z" fill="#F4511E"/>
<path d="M4.018 22.8833C5.278 22.8833 6.25333 23.1446 6.944 23.6673C7.644 24.19 7.994 24.9693 7.994 26.0053C7.994 27.088 7.64867 27.9046 6.958 28.4553C6.26733 28.9966 5.34333 29.2673 4.186 29.2673H3.08V32.5713H1.022V22.8833H4.018ZM4.018 27.7553C4.61533 27.7553 5.07267 27.62 5.39 27.3493C5.70733 27.0786 5.866 26.6306 5.866 26.0053C5.866 24.9133 5.24067 24.3673 3.99 24.3673H3.08V27.7553H4.018ZM11.4062 22.8833V32.5713H9.34817V22.8833H11.4062ZM19.4834 22.8833V24.4653L15.1434 30.9053H19.5534L19.3294 32.5713H12.7354V31.0173L17.1594 24.5073H13.1834V22.8833H19.4834ZM26.9483 22.8833V24.4653L22.6083 30.9053H27.0183L26.7943 32.5713H20.2003V31.0173L24.6243 24.5073H20.6483V22.8833H26.9483ZM33.5991 32.5713L33.0531 30.4013H30.0151L29.4691 32.5713H27.3271L30.3091 22.8833H32.8151L35.7831 32.5713H33.5991ZM30.4071 28.8753H32.6611L31.5271 24.4093L30.4071 28.8753Z" fill="#F4511E"/>
<path d="M60.9996 22.238L59.6663 23.5713M63.333 27.9046L61.6663 29.798M68.6996 11.11C64.728 11.9443 61.0851 13.9166 58.2153 16.7861C55.3456 19.6557 53.373 23.2984 52.5383 27.27M70.0663 15.9713C68.7049 16.3426 67.5467 17.2395 66.8465 18.4648C66.1464 19.69 65.9617 21.1432 66.333 22.5046C66.7043 23.8661 67.6012 25.0243 68.8264 25.7244C70.0517 26.4245 71.5049 26.6093 72.8663 26.238M74.285 31.214C74.3485 31.4417 74.3504 31.6821 74.2904 31.9108C74.2304 32.1394 74.1107 32.348 73.9435 32.5152C73.7764 32.6823 73.5678 32.802 73.3391 32.862C73.1105 32.922 72.87 32.9202 72.6423 32.8566L48.6423 26.19C48.4736 26.143 48.3158 26.0632 48.1779 25.9552C48.04 25.8472 47.9247 25.7131 47.8387 25.5606C47.7526 25.4081 47.6975 25.2401 47.6763 25.0662C47.6552 24.8923 47.6686 24.716 47.7156 24.5473C48.9266 20.1876 51.2444 16.2151 54.4439 13.0156C57.6434 9.81608 61.6159 7.49829 65.9756 6.2873C66.1443 6.24024 66.3207 6.22689 66.4945 6.248C66.6684 6.26911 66.8364 6.32427 66.9889 6.41032C67.1415 6.49637 67.2756 6.61164 67.3836 6.74953C67.4916 6.88742 67.5713 7.04524 67.6183 7.21396L74.285 31.214Z" stroke="#F4511E" stroke-width="2" stroke-linecap="round" stroke-linejoin="round"/>
</svg>
